# xmcd
#
# Track frame offsets: 
#        150
#        11265
#        22303
#        35185
#        47840
#        58153
#        69378
#        82210
#        94053
#        107473
#        119193
#        129888
#        143510
#        156473
#        169840
#        179808
#        195313
#        208390
#
# Disc length: 2967 seconds
#
# Revision: 4
# Processed by: cddbd v1.5.2PL0 Copyright (c) Steve Scherf et al.
# Submitted via: ExactAudioCopy v1.0b3
#
DISCID=0f0b9512
DTITLE=Howlin' Wolf - Back Door Man
DYEAR=1900
DGENRE=Blues
TTITLE0=The Red Rooster
TTITLE1=Wand Dang Doodle
TTITLE2=Back Door Man
TTITLE3=Spoonful
TTITLE4=Shake for Me
TTITLE5=You'll Be Mine
TTITLE6=Killing Floor
TTITLE7=Built for Comfort
TTITLE8=Moanin' at Midnight
TTITLE9=Howlin' for My Darling
TTITLE10=Who's Been Talkin'
TTITLE11=Highway 49
TTITLE12=I Ain't Superstitious
TTITLE13=Tell Me
TTITLE14=Down in the Bottom
TTITLE15=Goin' Down Slow
TTITLE16=Evil
TTITLE17=Ridin' in the Moonlight
EXTD=
EXTT0=
EXTT1=
EXTT2=
EXTT3=
EXTT4=
EXTT5=
EXTT6=
EXTT7=
EXTT8=
EXTT9=
EXTT10=
EXTT11=
EXTT12=
EXTT13=
EXTT14=
EXTT15=
EXTT16=
EXTT17=
PLAYORDER=
